<svg width="1024" height="1024" viewBox="0 0 1024 1024" fill="none" xmlns="http://www.w3.org/2000/svg">
<g clip-path="url(#clip0_63_6)">
<path d="M299.525 830C264.325 830 232.592 820.133 204.325 800.4C176.592 780.133 154.458 748.4 137.925 705.2C121.925 661.467 113.925 604.4 113.925 534C113.925 496.133 118.192 459.867 126.725 425.2C135.258 390 148.058 358.8 165.125 331.6C182.192 303.867 203.792 282.267 229.925 266.8C256.592 250.8 287.525 242.8 322.725 242.8C352.592 242.8 377.125 246.8 396.325 254.8C416.058 262.8 430.725 273.2 440.325 286C449.925 298.8 454.725 312.4 454.725 326.8C454.725 341.733 449.392 353.467 438.725 362C428.592 370.533 413.392 374.8 393.125 374.8C393.125 357.2 390.725 341.467 385.925 327.6C381.658 313.2 374.192 302 363.525 294C353.392 285.467 339.792 281.2 322.725 281.2C296.058 281.2 273.658 290.267 255.525 308.4C237.392 326 223.525 352.133 213.925 386.8C204.325 421.467 198.458 464.667 196.325 516.4C205.392 508.933 215.258 502.267 225.925 496.4C237.125 490 249.658 484.933 263.525 481.2C277.925 476.933 293.658 474.8 310.725 474.8C359.792 474.8 398.725 489.467 427.525 518.8C456.858 547.6 471.525 587.6 471.525 638.8C471.525 676.133 464.592 709.2 450.725 738C437.392 766.8 417.925 789.467 392.325 806C366.725 822 335.792 830 299.525 830ZM301.925 786C321.125 786 337.125 781.2 349.925 771.6C363.258 761.467 373.125 746.267 379.525 726C386.458 705.2 389.925 678.8 389.925 646.8C389.925 616.4 386.192 591.6 378.725 572.4C371.792 552.667 361.125 538.267 346.725 529.2C332.858 520.133 315.525 515.6 294.725 515.6C280.858 515.6 267.792 518 255.525 522.8C243.258 527.067 232.058 532.933 221.925 540.4C211.792 547.333 202.992 554.533 195.525 562C196.058 602 198.725 636.133 203.525 664.4C208.858 692.667 216.058 715.867 225.125 734C234.725 752.133 245.925 765.467 258.725 774C271.525 782 285.925 786 301.925 786ZM684 822V788.4H706.4C718.667 788.4 729.6 787.067 739.2 784.4C749.333 781.733 757.333 776.4 763.2 768.4C769.067 759.867 772 747.333 772 730.8V665.2H525.6V632.4L772.8 250.8H848.8V620.4H948V665.2H848.8V730.8C848.8 747.333 851.733 759.867 857.6 768.4C863.467 776.4 871.467 781.733 881.6 784.4C891.733 787.067 902.667 788.4 914.4 788.4H924.8V822H684ZM583.2 620.4H772V472.4C772 460.667 772 447.867 772 434C772.533 420.133 772.8 405.733 772.8 390.8C773.333 375.867 773.867 361.2 774.4 346.8C775.467 332.4 776.533 319.067 777.6 306.8C774.933 312.133 770.667 320.133 764.8 330.8C758.933 341.467 752.267 353.2 744.8 366C737.333 378.267 730.133 390.267 723.2 402C716.267 413.2 710.4 422.533 705.6 430L583.2 620.4Z" fill="black"/>
</g>
<defs>
<clipPath id="clip0_63_6">
<rect width="1024" height="1024" fill="white"/>
</clipPath>
</defs>
</svg>
